<?xml version="1.0" encoding="UTF-8"?><svg id="Layer_2" xmlns="http://www.w3.org/2000/svg" width="720.96" height="227.68" xmlns:xlink="http://www.w3.org/1999/xlink" viewBox="0 0 720.96 227.68"><defs><style>.cls-1{filter:url(#drop-shadow-1);}.cls-2,.cls-3{fill:#fff;stroke-width:0px;}.cls-4{filter:url(#drop-shadow-2);}.cls-3{opacity:.95;}</style><filter id="drop-shadow-1" filterUnits="userSpaceOnUse"><feOffset dx="7" dy="7"/><feGaussianBlur result="blur" stdDeviation="5"/><feFlood flood-color="#898989" flood-opacity=".75"/><feComposite in2="blur" operator="in"/><feComposite in="SourceGraphic"/></filter><filter id="drop-shadow-2" filterUnits="userSpaceOnUse"><feOffset dx="7" dy="7"/><feGaussianBlur result="blur-2" stdDeviation="5"/><feFlood flood-color="#898989" flood-opacity=".75"/><feComposite in2="blur-2" operator="in"/><feComposite in="SourceGraphic"/></filter></defs><g id="Layer_1-2"><g class="cls-1"><path class="cls-3" d="m207.12,168.14c-3.64-3.72-11.41-4.47-14.94,0-21.21,26.82-53.35,41.27-87.56,38.08-28.31-2.64-55.04-19.12-70.6-42.81-16.83-25.62-20.62-57.69-10.4-86.57,4.35-12.3,14.62-41.38,54.16-56.1,44.15-17.22,91.35,11.21,105.79,26.57l11.27-11.27c-3.42-3.64-30.64-28.14-61.33-33.78C102.82-3.37,48.26-2.75,12.96,56.12c-15.34,27.55-18.4,73.37-1.88,106.71,15.55,31.39,44.26,55.03,78.53,62.29,43.66,9.24,89.77-6.94,117.51-42.04,3.57-4.51,4.32-10.53,0-14.94Z"/><path class="cls-3" d="m113.1,174.74c4.82,0,8.73-3.91,8.73-8.73v-47.75h47.52c4.82,0,8.73-3.91,8.73-8.73s-3.91-8.73-8.73-8.73h-47.52v-47.15c0-4.82-3.91-8.73-8.73-8.73s-8.73,3.91-8.73,8.73v47.15h-47.38c-4.82,0-8.73,3.91-8.73,8.73s3.91,8.73,8.73,8.73h47.38v47.75c0,4.82,3.91,8.73,8.73,8.73Z"/></g><g class="cls-4"><path class="cls-2" d="m271.84,125.07c0,4.45-.66,8.52-1.99,12.19-1.33,3.67-3.23,6.82-5.71,9.43-2.48,2.62-5.48,4.64-8.99,6.06s-7.44,2.14-11.78,2.14-8.45-.71-11.98-2.14c-3.54-1.43-6.53-3.45-8.99-6.06-2.46-2.62-4.35-5.76-5.65-9.43-1.31-3.67-1.96-7.73-1.96-12.19s.66-8.51,1.99-12.19c1.33-3.67,3.23-6.82,5.71-9.43,2.48-2.62,5.48-4.64,8.99-6.06,3.52-1.43,7.44-2.14,11.78-2.14s8.45.71,11.98,2.14c3.53,1.43,6.53,3.45,8.99,6.06,2.46,2.62,4.35,5.76,5.65,9.43,1.31,3.67,1.96,7.73,1.96,12.19Zm-14.36,0c0-3.01-.35-5.66-1.05-7.97-.7-2.3-1.68-4.24-2.93-5.8-1.25-1.56-2.75-2.73-4.51-3.52-1.76-.78-3.67-1.17-5.74-1.17s-3.92.39-5.65,1.17c-1.74.78-3.23,1.95-4.48,3.52-1.25,1.56-2.23,3.5-2.93,5.8-.7,2.31-1.05,4.96-1.05,7.97s.35,5.67,1.05,7.97c.7,2.31,1.69,4.23,2.96,5.77,1.27,1.54,2.77,2.72,4.51,3.52,1.74.8,3.64,1.2,5.71,1.2s3.96-.4,5.68-1.2c1.72-.8,3.2-1.97,4.45-3.52,1.25-1.54,2.23-3.47,2.93-5.77.7-2.3,1.05-4.96,1.05-7.97Z"/><path class="cls-2" d="m293.19,104.57h.23c.82-1.17,1.85-2.32,3.11-3.46,1.25-1.13,2.68-2.13,4.28-2.99,1.6-.86,3.37-1.55,5.3-2.08s3.99-.79,6.18-.79c2.07,0,4.07.23,6.01.7s3.7,1.2,5.3,2.2c1.6,1,3.02,2.29,4.25,3.87s2.2,3.47,2.9,5.65c.39,1.21.65,2.53.79,3.96.14,1.43.21,3.08.21,4.95v36.85h-13.89v-34.69c0-1.52-.06-2.83-.18-3.93-.12-1.09-.33-2.05-.64-2.87-.7-1.8-1.77-3.09-3.19-3.87-1.43-.78-3.15-1.17-5.19-1.17-2.7,0-5.28.64-7.76,1.9-2.48,1.27-4.68,3.12-6.59,5.54v39.08h-13.89v-56.78h11.48l1.29,7.91Z"/><path class="cls-2" d="m381.76,108.08h-22.03v45.35h-13.89v-45.35h-9.61v-11.43h9.61v-5.21c0-4.37.76-8.1,2.29-11.16,1.52-3.07,3.54-5.58,6.04-7.53,2.5-1.95,5.36-3.38,8.58-4.28,3.22-.9,6.53-1.35,9.93-1.35,2.77,0,5.44.19,8,.56,2.56.37,4.91.83,7.06,1.38,0,0,2.67.99,3.19,5.29s-3.19,5.73-3.19,5.73c-1.95-.43-4.05-.8-6.3-1.11-2.25-.31-4.56-.47-6.94-.47-1.91,0-3.76.21-5.54.62-1.78.41-3.35,1.09-4.72,2.05-1.37.96-2.46,2.26-3.28,3.9s-1.23,3.69-1.23,6.15v5.45h35.92v56.78h-13.89v-45.35Z"/><path class="cls-2" d="m444.37,154.9c0-.78,0-1.75.03-2.9.02-1.15.07-2.12.15-2.9h-.12c-.86.7-1.85,1.4-2.96,2.08-1.11.68-2.33,1.31-3.66,1.88-1.33.57-2.79,1.02-4.39,1.35-1.6.33-3.24.5-4.92.5-3.01,0-5.95-.54-8.82-1.61s-5.42-2.77-7.65-5.1c-2.23-2.32-4.02-5.3-5.39-8.94-1.37-3.63-2.05-8.01-2.05-13.12s.69-9.6,2.08-13.45c1.39-3.85,3.23-7.06,5.54-9.64,2.3-2.58,4.95-4.52,7.94-5.83,2.99-1.31,6.06-1.96,9.23-1.96,3.48,0,6.56.73,9.26,2.2s4.9,3.33,6.62,5.6h.23l.59-6.39h12.19v57.83c0,3.32-.27,6.17-.82,8.55-.55,2.38-1.35,4.49-2.4,6.33-1.25,2.15-2.84,4.02-4.78,5.62-1.93,1.6-4.14,2.93-6.62,3.98-2.48,1.05-5.21,1.85-8.17,2.37-2.97.53-6.11.79-9.43.79-1.88,0-3.71-.07-5.51-.21-1.8-.14-3.49-.33-5.07-.59-1.58-.25-3.03-.55-4.34-.88-1.31-.33-2.41-.67-3.31-1.03v-11.31c2.58.86,5.28,1.51,8.12,1.96,2.83.45,5.81.67,8.94.67,6.21,0,11.02-1.2,14.41-3.6s5.1-6.04,5.1-10.93v-1.35Zm-12.42-11.07c1.41,0,2.73-.18,3.98-.53,1.25-.35,2.4-.8,3.46-1.35,1.05-.55,2-1.15,2.84-1.82.84-.66,1.55-1.33,2.14-1.99v-25.37c-1.49-1.76-3.32-3.22-5.51-4.39-2.19-1.17-4.51-1.78-6.97-1.82-.86,0-1.77.11-2.72.32-.96.22-1.92.6-2.9,1.14-.98.55-1.9,1.28-2.78,2.2-.88.92-1.65,2.08-2.31,3.49-.67,1.41-1.2,3.09-1.61,5.04-.41,1.95-.62,4.22-.62,6.8,0,2.85.27,5.4.82,7.65.55,2.25,1.37,4.16,2.46,5.74,1.09,1.58,2.45,2.79,4.07,3.63,1.62.84,3.51,1.26,5.65,1.26Z"/><path class="cls-2" d="m513.39,134.27c1.44-4.26,2.49-7.29,3.13-9.11s2-5.54,4.07-11.16l14.53-38.96h15.18l-30.64,78.4h-12.89l-30.64-78.4h15.29l14.53,38.96c2.07,5.62,3.43,9.35,4.07,11.16s1.69,4.85,3.13,9.11h.23Z"/><path class="cls-2" d="m555.73,96.66h13.89v56.78h-13.89v-56.78Zm15.59-14.18c0,4.78-3.87,8.65-8.65,8.65s-8.65-3.87-8.65-8.65,3.87-8.65,8.65-8.65,8.65,3.87,8.65,8.65Z"/><path class="cls-2" d="m610.72,143.71c2.7,0,5.51-.27,8.44-.82,2.93-.55,5.9-1.33,8.91-2.34v11.07c-1.8.78-4.55,1.52-8.26,2.23-3.71.7-7.56,1.05-11.54,1.05s-7.84-.52-11.46-1.55c-3.61-1.03-6.77-2.7-9.46-5.01-2.7-2.3-4.83-5.29-6.42-8.96-1.58-3.67-2.37-8.12-2.37-13.36s.74-9.67,2.23-13.53c1.48-3.87,3.48-7.07,5.98-9.61,2.5-2.54,5.36-4.44,8.58-5.71,3.22-1.27,6.55-1.9,9.99-1.9s6.9.55,9.93,1.64c3.03,1.09,5.64,2.81,7.85,5.16,2.21,2.34,3.93,5.36,5.16,9.05s1.85,8.06,1.85,13.1c-.04,1.95-.1,3.61-.18,4.98h-37.21c.2,2.62.78,4.85,1.76,6.71.98,1.86,2.26,3.36,3.84,4.51,1.58,1.15,3.43,1.99,5.54,2.52s4.39.79,6.86.79Zm-5.57-37.62c-1.76,0-3.32.32-4.69.97-1.37.64-2.55,1.52-3.54,2.64s-1.79,2.41-2.37,3.9c-.59,1.48-.98,3.07-1.17,4.75h22.32c0-1.68-.23-3.26-.67-4.75-.45-1.48-1.11-2.78-1.99-3.9s-1.97-1.99-3.28-2.64c-1.31-.64-2.84-.97-4.6-.97Z"/><path class="cls-2" d="m676.49,112.07c-1.09,5.66-2.38,11.15-3.87,16.46l-6.86,24.9h-13.65l-19.86-56.78h14.65l7.32,23.79c1.68,5.51,3.16,10.84,4.45,16h.23c1.09-5,2.4-10.33,3.93-16l6.5-23.79h14.65l6.39,23.79c1.37,5.04,2.67,10.37,3.93,16h.23c1.33-5.27,2.81-10.61,4.45-16l7.32-23.79h14.65l-19.86,56.78h-13.65l-6.86-24.9c-1.56-5.58-2.85-11.07-3.87-16.46h-.23Z"/></g></g></svg>