<?xml version="1.0" encoding="UTF-8"?>
<svg id="Layer_2" data-name="Layer 2" xmlns="http://www.w3.org/2000/svg" viewBox="0 0 257.66 256.71">
  <defs>
    <style>
      .cls-1 {
        fill: #e6e7e8;
      }
    </style>
  </defs>
  <g id="Layer_1-2" data-name="Layer 1">
    <path class="cls-1" d="m257.66,174c-4.14,26.43-17.2,46.82-39.19,61.18-21.99,14.36-51.22,21.54-87.69,21.54-39.53,0-71.22-10.58-95.04-31.75C11.91,203.81,0,175.49,0,140.03v-24.02c0-23.22,5.55-43.64,16.66-61.26,11.11-17.62,26.85-31.15,47.23-40.58C84.27,4.72,107.87,0,134.69,0c35.55,0,64.05,7.41,85.5,22.22,21.45,14.82,33.94,35.32,37.46,61.52h-44.36c-3.83-19.96-12.15-34.42-24.94-43.37-12.8-8.95-30.68-13.43-53.67-13.43-28.2,0-50.3,7.79-66.31,23.36-16.01,15.57-24.02,37.73-24.02,66.46v24.22c0,27.14,7.58,48.72,22.75,64.75,15.17,16.03,36.39,24.04,63.67,24.04,24.51,0,43.33-4.15,56.43-12.44,13.1-8.29,21.8-22.74,26.09-43.33h44.36Z"/>
    <rect class="cls-1" x="171.6" y="66.98" width="17.42" height="59.54" rx="8.71" ry="8.71"/>
    <rect class="cls-1" x="171.59" y="126.52" width="17.42" height="59.54" rx="8.71" ry="8.71"/>
    <rect class="cls-1" x="210.08" y="96.76" width="17.42" height="59.54" rx="8.71" ry="8.71" transform="translate(345.31 -92.26) rotate(90)"/>
    <rect class="cls-1" x="133.12" y="96.76" width="17.42" height="59.54" rx="8.71" ry="8.71" transform="translate(268.36 -15.31) rotate(90)"/>
  </g>
</svg>